inDegrees=no
num_controls=7
num_derivatives=13
num_iterations=140
num_multipliers=7
num_parameters=0
num_slacks=7
num_states=26
objective=4.436602
objective_accelerations=0.234051
objective_balance=0.045480
objective_effort=0.317141
objective_height=3.742530
objective_ligament=0.097400
solver_duration=1388.847727
status=Solve_Succeeded
success=true
DataType=double
version=3
OpenSimVersion=4.4-2022-07-23-0e9fedc
endheader
time	/jointset/ground_pelvis/pelvis_tilt/value	/jointset/ground_pelvis/pelvis_tx/value	/jointset/ground_pelvis/pelvis_ty/value	/jointset/hip_l/hip_flexion_l/value	/jointset/hip_l/hip_adduction_l/value	/jointset/hip_l/hip_rotation_l/value	/jointset/back/lumbar_extension/value	/jointset/patellofemoral_l/patellar_flexion_l/value	/jointset/knee_l/knee_flexion_l/value	/jointset/knee_l/knee_adduction_l/value	/jointset/knee_l/knee_rotation_l/value	/jointset/ankle_l/ankle_angle_l/value	/jointset/subtalar_l/subtalar_angle_l/value	/jointset/ground_pelvis/pelvis_tilt/speed	/jointset/ground_pelvis/pelvis_tx/speed	/jointset/ground_pelvis/pelvis_ty/speed	/jointset/hip_l/hip_flexion_l/speed	/jointset/hip_l/hip_adduction_l/speed	/jointset/hip_l/hip_rotation_l/speed	/jointset/back/lumbar_extension/speed	/jointset/patellofemoral_l/patellar_flexion_l/speed	/jointset/knee_l/knee_flexion_l/speed	/jointset/knee_l/knee_adduction_l/speed	/jointset/knee_l/knee_rotation_l/speed	/jointset/ankle_l/ankle_angle_l/speed	/jointset/subtalar_l/subtalar_angle_l/speed	/forceset/tau_hip_flexion_l	/forceset/tau_hip_adduction_l	/forceset/tau_hip_rotation_l	/forceset/tau_knee_flexion_l	/forceset/tau_ankle_angle_l	/forceset/tau_subtalar_angle_l	/forceset/tau_lumbar_extension	lambda_cid13_p0	lambda_cid13_p1	lambda_cid13_p2	lambda_cid13_p3	lambda_cid13_p4	lambda_cid13_p5	lambda_cid14_p0	/jointset/ground_pelvis/pelvis_tilt/accel	/jointset/ground_pelvis/pelvis_tx/accel	/jointset/ground_pelvis/pelvis_ty/accel	/jointset/hip_l/hip_flexion_l/accel	/jointset/hip_l/hip_adduction_l/accel	/jointset/hip_l/hip_rotation_l/accel	/jointset/back/lumbar_extension/accel	/jointset/patellofemoral_l/patellar_flexion_l/accel	/jointset/knee_l/knee_flexion_l/accel	/jointset/knee_l/knee_adduction_l/accel	/jointset/knee_l/knee_rotation_l/accel	/jointset/ankle_l/ankle_angle_l/accel	/jointset/subtalar_l/subtalar_angle_l/accel	gamma_cid13_p0	gamma_cid13_p1	gamma_cid13_p2	gamma_cid13_p3	gamma_cid13_p4	gamma_cid13_p5	gamma_cid14_p0
1.5	0.1765765996485927	0.07121263926113851	0.9001169430747843	0.2784031418969321	-0.3183068714939412	-0.1872765058106293	-0.7546292327392048	0.6407110473332033	0.6407110473328713	-0.1111379455851023	-0.1745319086939568	0.2385536543530138	0.06439535105072744	-0.1263049321774349	0.07824504583360335	0.2276852095571578	-0.9384541302684338	0.1205562026555647	-0.5109291297379096	0.8482997635271983	-1.638064706819667	-1.63806470681996	-0.1166380432577981	-2.427745044880528e-05	-0.6717581044303457	-0.1274698966555749	-0.07131702144397079	0.03619366329002142	-0.006391502554483294	-0.2291532400412581	-0.01900769873147423	0.0267340431556576	0.2009321578222346	-48.92252948027974	-6.439972705527299	4.450716113004176	3.656955833863818	-678.8833714826815	-73.36164479644944	-19.88620817465317	-0.4263945083382194	0.1609169490018448	-0.4406077588838185	0.07841929173271776	0.241257013994929	-0.250018149015111	1.244685415587473	-0.6999168145871179	-0.6999168145871523	-0.3177704226386727	0.0234947407282196	-0.3547728892421448	0.2319906171024966	-3.093242179769125e-08	9.18025726501157e-07	8.666082269901014e-08	1.472944435348667e-07	-3.152032483540468e-08	3.836217572528298e-07	4.765308026391839e-08
1.51	0.1752923921354153	0.07200305607179287	0.9023713098017123	0.2690237097476723	-0.3170894762452708	-0.1923988946942072	-0.7460849995398297	0.6242976578323026	0.6242976578320223	-0.1123199118633735	-0.174532140682163	0.2318192498288793	0.06313226502195976	-0.1305076659210161	0.07982912356277636	0.2231468541231096	-0.9373258969684357	0.1229109428646141	-0.5134884722921074	0.8604308526775881	-1.644395211842622	-1.644395211842777	-0.1197627793628289	-1.975708894268246e-05	-0.6750275254524746	-0.1251323561817931	-0.06781240096750377	0.0345216415503612	-0.006398632466935237	-0.2258819407685453	-0.01551761753139188	0.02620730175325295	0.1966838520482315	-47.71166823638982	-6.457106088669837	4.492151243585482	3.254979771896505	-676.6319847088829	-73.47826643466426	-20.36233387497889	-0.4128882529808203	0.1558028902344064	-0.4666486538373076	0.1459708562573327	0.2306850524889617	-0.2498262027598862	1.179917114072299	-0.5669295249828668	-0.5669295249620868	-0.310820006398799	-0.01068557076532733	-0.2987137597646717	0.2367299090739998	-3.289273287467319e-08	8.969074541325066e-07	8.467810206694879e-08	1.445109988402453e-07	-3.369275710923536e-08	3.642841930480918e-07	4.72433672613617e-08
1.52	0.1739670221956796	0.07280904360081071	0.9045790531306653	0.2596587490328363	-0.3158489130888821	-0.1975450637821582	-0.7374229361590888	0.6078275008454048	0.6078275008451773	-0.1135333244630827	-0.1745322507177082	0.2250550136843095	0.06189297322724088	-0.1345374174890979	0.0813591895062946	0.2183605299621823	-0.9355598433834769	0.1251897841988308	-0.5156851706118168	0.8718657998002867	-1.649418204018905	-1.649418204018921	-0.1229273075464048	1.130874780096862e-07	-0.67772442851726	-0.122711049845694	-0.06430778049105394	0.03284961981067486	-0.006405762379302106	-0.2226106414958481	-0.01202753633132403	0.02568056035079772	0.1924355462742255	-46.50666313040007	-6.471670546030761	4.531414181583153	2.85553797636318	-674.4738261260371	-73.60834320163893	-20.81518823076026	-0.3917980732384365	0.150114591870937	-0.4902015042596313	0.20598334872483	0.2260772390283791	-0.1774893021173895	1.105457010049145	-0.4384142452528316	-0.4384142452528311	-0.3257288383477068	0.02656470371118523	-0.2402692977734419	0.2487437895659765	-3.406556487452841e-08	8.731002026820131e-07	8.06589453492194e-08	1.410165642972067e-07	-3.441407707812092e-08	3.459838865692909e-07	4.683271979218345e-08
1.53	0.172602208241681	0.07363004161786557	0.9067377362812885	0.2503147249208752	-0.3145859020470014	-0.2027114298648969	-0.7286500906516479	0.5913137537568067	0.591313753756632	-0.1147784193019365	-0.1745320754204807	0.2182667243306856	0.06067838237701146	-0.1383952995281305	0.08282916165445049	0.2133394097327315	-0.9331322956791898	0.1274032521584533	-0.5175394976477579	0.8825757301733193	-1.653102590979	-1.653102590978916	-0.1260782431365893	3.069100639700702e-05	-0.6798326669476813	-0.1201868117187538	-0.06067189705761094	0.0310506250809225	-0.006458223058226275	-0.2195071557762161	-0.008330179231606786	0.02515804212421354	0.1881011866668083	-45.23942150387274	-6.495508430417577	4.568205384920199	2.420558901774132	-672.3832274063594	-73.78858179876219	-21.24192125818827	-0.3782830359049809	0.1437775871972251	-0.5135774776119141	0.278028610343625	0.2174990652784948	-0.182084822879107	1.034625323583836	-0.2991667536267956	-0.2991667536118183	-0.30763022768187	-0.009310485594932187	-0.1809653386272581	0.2571713133947997	-3.440170035493649e-08	8.46435910957061e-07	7.447607529046771e-08	1.367667030402248e-07	-3.359359022300232e-08	3.287856664242983e-07	4.642107945221978e-08
1.54	0.171199715513953	0.07446540716858364	0.9088451061905523	0.2409983539117689	-0.3133010528273605	-0.2078948753017002	-0.7197739729859456	0.5747700196321806	0.5747700196320285	-0.1160545943583655	-0.1745317173083647	0.2114603797481676	0.05948961540587815	-0.1420731722339333	0.08423269623893755	0.2080978816903251	-0.9300292228123876	0.1295574197520463	-0.5191010414255602	0.8925202314524997	-1.655415611228652	-1.655415611228469	-0.1291433510598952	3.667606222425715e-05	-0.6813354742961334	-0.1175462740263427	-0.05703601362413557	0.02925163035118169	-0.006510683737420709	-0.2164036700565489	-0.004632822131878893	0.02463552389765161	0.1837668270594085	-43.97808767704674	-6.515916499217781	4.601714101310835	1.987866445875597	-670.388069316117	-73.98108814053798	-21.63972933753556	-0.3557962065925835	0.1368270791372193	-0.5342830668507693	0.3410883812278438	0.2142171658224596	-0.1189326504896472	0.9523711912786565	-0.1641409031643514	-0.1641409031643523	-0.3085633049720438	0.02164613109281029	-0.119183081379531	0.27200370266017	-3.879105266210845e-08	8.232381111563704e-07	8.92379981802268e-08	1.342328962765639e-07	-3.62916499857484e-08	2.986596536391383e-07	4.378732956378072e-08
1.55	0.1697613626263959	0.07531444425032754	0.9108990042439667	0.2317164888177427	-0.3119949081462802	-0.213092523235148	-0.7108023535869432	0.5582101575852528	0.5582101575852287	-0.1173607935717666	-0.1745314430815444	0.2046420996256272	0.05832792064054416	-0.1455629888126608	0.08556035544577562	0.2026498249895038	-0.9262257560936344	0.1316619676959203	-0.5203784417867773	0.9016616060733308	-1.656315009629405	-1.656315009629249	-0.1320736480400479	1.240014434785034e-05	-0.6822146724956862	-0.1147714298958427	-0.05332574061707746	0.0274812175863981	-0.006604330976528269	-0.2133612542946897	-0.0008475291604734814	0.02404469147665677	0.1793830598890419	-42.69668788147496	-6.502041448402848	4.620472935707861	1.560684489809457	-668.4607818169392	-74.12257679621032	-22.0058730535424	-0.3404248815383055	0.1286073153922565	-0.5548619311238407	0.4176651586680361	0.207022608410274	-0.1246039165883079	0.8737142561401834	-0.01657817055462098	-0.01657817055866203	-0.2817016434388817	-0.01529575513695736	-0.05638960425914737	0.2832704039473298	-4.785041566098631e-08	8.040343129205892e-07	1.281319651193557e-07	1.336762827334685e-07	-4.304368737342529e-08	2.536385754207428e-07	3.859332302166361e-08
1.56	0.16828914147344	0.0761763323189268	0.9128974627384877	0.2224761962591835	-0.3106680281858207	-0.21830143720974	-0.7017435817100024	0.5416485537818841	0.5416485537820257	-0.1186955835047332	-0.1745315778743181	0.1978182072380862	0.05719458344365499	-0.1488468253123758	0.08680289361001353	0.1970099699116274	-0.921714715716104	0.133704475629441	-0.5213542496540292	0.9099507270403636	-1.655763962511114	-1.655763962510984	-0.1348614949762991	-4.512784988774379e-05	-0.6824579272958793	-0.1118747603372508	-0.04961546761011325	0.0257108048215374	-0.006697978215162933	-0.2103188385329151	0.00293776381089164	0.02345385905555389	0.1749992927186414	-41.42104623206531	-6.484331581698022	4.635392207310884	1.136444723666991	-666.6284632395304	-74.27247902155703	-22.33771849727611	-0.3146001907901829	0.1198028706172363	-0.5726427422617771	0.4826031129832735	0.2018091637517465	-0.05861415169666579	0.7819204605189347	0.1259482006446083	0.1259482006446072	-0.2800732961917839	0.01499571582097618	0.008005598492490693	0.2963687882785314	-2.652799839731445e-08	8.147536162362965e-07	1.815052413322373e-08	1.259006170658859e-07	-1.397189654895472e-08	3.313309653050601e-07	5.197275407035123e-08
1.57	0.1667852189654664	0.07705021247736779	0.9148386392199943	0.2132842172741707	-0.3093213795599575	-0.2235177772173383	-0.6926063926962248	0.5250994673723249	0.5250994673725052	-0.1200586230105329	-0.1745320368162447	0.1909948906802535	0.05609031096449453	-0.1519046964101416	0.08795709320528172	0.1911985160462088	-0.9165584850129106	0.1356086924002722	-0.5218454448042841	0.917335739674171	-1.653806046178007	-1.653806046177819	-0.1377332535546244	-4.125974755578365e-05	-0.6820984689944321	-0.1089666127758466	-0.04575093374290141	0.02368807806922743	-0.006831604286151347	-0.2075292861804724	0.006970640436474336	0.02293166435862256	0.1705375496032734	-40.07145698335265	-6.508131415384279	4.655503736749671	0.6717627291957255	-664.9293156100023	-74.55121276118476	-22.63275540776311	-0.2964347245201321	0.1108416589738167	-0.5893977801449501	0.5505203164773108	0.1822137879329991	-0.0340219056739921	0.6940912584956638	0.2677824047951445	0.2677824048038819	-0.2886485599641796	-0.006179385649161757	0.06597788263580832	0.2899185522583071	3.27716441945442e-08	8.628767964913638e-07	-2.779251767594824e-07	1.091011362426945e-07	5.987967954069975e-08	5.624151903177671e-07	8.856898210754454e-08
